<?xml version="1.0" standalone="no"?>
<!DOCTYPE svg PUBLIC "-//W3C//DTD SVG 20010904//EN"
 "http://www.w3.org/TR/2001/REC-SVG-20010904/DTD/svg10.dtd">
<svg version="1.0" xmlns="http://www.w3.org/2000/svg"
 width="1080.000000pt" height="1080.000000pt" viewBox="0 0 1080.000000 1080.000000"
 preserveAspectRatio="xMidYMid meet">
<metadata>
Created by potrace 1.14, written by Peter Selinger 2001-2017
</metadata>
<g transform="translate(0.000000,1080.000000) scale(0.100000,-0.100000)"
fill="#000000" stroke="none">
<path d="M1830 9453 c-11 -3 -14 -15 -12 -47 4 -40 2 -44 -26 -54 -17 -6 -35
-6 -43 -1 -12 7 -12 9 0 9 8 0 12 2 9 5 -3 3 -27 1 -53 -5 -46 -10 -51 -9 -99
21 -46 28 -53 30 -88 20 -21 -7 -38 -16 -38 -22 0 -5 -8 -12 -17 -16 -10 -3
-33 -12 -51 -19 l-34 -14 29 -23 c36 -31 193 -72 193 -51 0 8 3 14 6 14 8 0
83 -20 104 -28 8 -3 68 -4 132 -4 101 2 119 0 130 -15 14 -19 62 -51 91 -60 9
-3 17 -9 17 -14 0 -5 18 -9 40 -9 22 0 40 3 40 8 0 4 9 13 20 20 16 10 25 9
52 -8 18 -11 51 -20 73 -20 39 0 73 -10 147 -43 41 -19 108 -23 108 -7 0 6 18
10 40 10 22 0 40 5 40 10 0 6 7 10 15 10 8 0 15 -4 15 -9 0 -5 13 -19 29 -31
27 -19 33 -19 63 -6 l33 14 -33 12 c-24 9 -30 15 -21 21 11 6 10 9 -4 15 -9 3
-17 12 -17 20 0 10 -12 14 -40 14 -29 0 -40 4 -40 15 0 11 -11 15 -40 15 l-40
0 0 40 c0 28 4 40 14 40 20 0 28 27 10 34 -9 3 -36 6 -60 6 -24 0 -44 5 -44
10 0 6 -18 10 -40 10 -22 0 -40 5 -40 10 0 6 -33 10 -80 10 -73 0 -80 2 -80
20 0 18 -7 20 -62 21 -93 3 -124 6 -144 17 -12 6 -41 6 -74 1 -87 -12 -120
-11 -120 5 0 8 5 16 12 18 16 6 -3 15 -22 11z m30 -97 c0 -3 -4 -8 -10 -11 -5
-3 -10 -1 -10 4 0 6 5 11 10 11 6 0 10 -2 10 -4z"/>
<path d="M1945 9450 c-3 -5 3 -10 15 -10 12 0 18 5 15 10 -3 6 -10 10 -15 10
-5 0 -12 -4 -15 -10z"/>
<path d="M2026 8909 c-60 -29 -106 -38 -106 -19 0 6 -25 8 -67 4 -47 -4 -86
-1 -128 10 -81 22 -233 22 -242 0 -8 -22 35 -60 80 -68 23 -4 37 -13 37 -21 0
-19 34 -19 50 0 17 20 110 21 110 1 0 -8 -8 -16 -17 -18 -13 -3 -6 -10 24 -26
52 -27 57 -36 54 -89 -3 -53 16 -58 22 -5 l4 37 -2 -40 c-1 -22 -5 -49 -9 -60
-5 -12 -4 -15 1 -8 7 10 17 10 46 1 29 -9 37 -16 37 -35 0 -13 2 -23 5 -23 21
0 167 -33 196 -45 20 -8 39 -12 41 -10 3 3 47 -2 99 -11 52 -8 108 -17 125
-19 53 -5 94 -16 94 -25 0 -10 -66 -25 -92 -21 -10 1 -28 -4 -40 -11 -13 -6
-29 -11 -37 -9 -8 1 -25 -3 -39 -10 -20 -11 -25 -11 -32 1 -5 8 -16 24 -24 35
-16 20 -16 20 -36 -5 -11 -14 -20 -19 -20 -12 0 8 -9 12 -22 10 -20 -3 -23
-10 -26 -50 -3 -44 -1 -48 19 -48 21 0 22 -1 4 -20 -10 -11 -26 -22 -36 -25
-11 -4 -19 -13 -19 -21 0 -8 -9 -14 -19 -14 -11 0 -23 -5 -26 -10 -4 -6 -22
-17 -41 -25 -19 -8 -37 -21 -40 -30 -8 -19 -34 -20 -34 0 0 8 -2 15 -5 15 -3
0 -22 -7 -42 -15 -19 -8 -53 -15 -74 -15 -25 0 -39 -5 -39 -13 0 -7 -18 -18
-40 -24 -22 -5 -40 -6 -40 -2 0 5 -18 9 -39 9 -36 0 -40 -3 -44 -27 -3 -20 -4
-15 -6 15 -2 56 -18 54 -23 -4 -3 -42 10 -73 25 -57 4 3 7 -4 7 -16 0 -12 -4
-20 -9 -17 -5 3 -14 -1 -21 -9 -9 -11 -17 -12 -31 -4 -13 6 -19 6 -19 -1 0 -6
-30 -10 -77 -10 -75 0 -76 0 -58 -20 10 -11 26 -22 36 -25 11 -4 19 -13 19
-20 0 -10 17 -15 61 -17 46 -2 65 -8 73 -21 15 -24 -4 -51 -40 -55 -15 -2 -37
-10 -48 -18 -11 -8 -30 -14 -42 -14 -12 0 -32 -8 -45 -19 -21 -16 -24 -26 -21
-65 3 -37 8 -46 23 -46 15 0 19 -7 19 -40 0 -22 5 -40 10 -40 6 0 10 -9 10
-21 0 -27 38 -58 71 -59 31 0 89 -50 92 -77 1 -16 9 -18 61 -15 41 2 56 0 47
-7 -11 -7 2 -13 48 -22 34 -6 69 -18 76 -25 10 -10 45 -14 129 -14 92 0 116
-3 116 -14 0 -9 21 -15 73 -20 77 -8 147 -25 147 -36 0 -4 18 -6 40 -5 23 1
40 -3 40 -9 0 -6 4 -6 8 2 5 7 16 10 25 6 23 -8 24 -84 2 -84 -8 0 -15 4 -15
10 0 5 -7 7 -15 4 -8 -4 -15 -12 -15 -20 0 -8 7 -14 15 -14 10 0 15 -10 15
-30 0 -28 -3 -30 -37 -30 -35 0 -36 0 -18 -20 10 -11 26 -22 35 -25 10 -3 21
-16 24 -28 11 -46 54 -52 399 -52 174 0 317 3 317 7 0 5 -19 8 -42 9 -24 0
-37 3 -30 6 26 10 318 -32 337 -48 13 -12 55 -11 55 1 0 6 8 5 20 -2 16 -10
24 -10 40 0 12 7 20 8 20 2 0 -5 18 -10 40 -10 29 0 40 -4 40 -15 0 -13 21
-15 125 -15 121 0 127 -1 151 -25 26 -26 44 -32 44 -15 0 6 33 10 80 10 47 0
80 -4 80 -10 0 -5 20 -10 45 -10 35 0 43 3 39 15 -5 13 15 15 149 15 153 0
156 0 161 23 2 12 4 6 3 -13 l-2 -35 142 0 c99 0 146 -4 154 -12 10 -10 8 -12
-10 -8 -35 7 -6 -23 33 -34 17 -4 30 -13 29 -20 -2 -6 0 -10 5 -10 36 6 272
-3 272 -10 0 -5 14 -24 32 -41 26 -27 35 -30 50 -21 11 7 18 7 18 1 0 -6 33
-10 80 -10 47 0 80 -4 80 -10 0 -5 18 -10 40 -10 37 0 40 2 40 28 l0 29 118 6
c73 4 118 3 120 -3 2 -6 21 -10 43 -10 28 0 39 -4 39 -15 0 -13 24 -15 160
-15 l160 0 0 55 c0 45 -4 58 -25 80 -14 14 -32 25 -40 25 -8 0 -15 5 -15 10 0
6 -18 10 -40 10 -38 0 -40 2 -40 30 0 28 2 30 40 30 22 0 40 5 40 10 0 6 -18
10 -40 10 -22 0 -40 -4 -40 -10 0 -6 -33 -10 -80 -10 l-80 0 0 40 0 40 -160 0
-160 0 0 90 0 90 -160 0 -160 0 0 -50 0 -50 -40 0 -40 0 0 40 0 40 -55 0 -55
0 0 38 0 37 -73 1 c-66 1 -75 4 -104 31 -18 17 -33 36 -33 42 0 6 -18 11 -40
11 l-40 0 0 40 c0 31 4 40 17 40 14 0 15 2 4 13 -11 10 -14 10 -18 0 -3 -8
-25 -13 -59 -13 l-54 0 0 36 c0 46 -21 63 -78 64 -45 0 -89 18 -111 44 -8 9
-29 16 -47 16 -34 0 -34 1 -34 45 0 31 5 47 18 54 15 9 14 11 -8 19 -17 6 -27
6 -32 -2 -5 -7 -16 -3 -35 12 -15 13 -35 25 -44 28 -9 3 -22 17 -28 31 -10 22
-14 23 -28 12 -13 -11 -17 -11 -20 -1 -3 7 -21 12 -44 12 -28 0 -39 4 -39 15
0 11 -11 15 -40 15 -36 0 -40 3 -40 25 0 23 -4 25 -40 25 -29 0 -40 4 -40 15
0 12 14 15 65 15 l65 0 0 40 c0 29 -4 40 -15 40 -11 0 -15 11 -15 40 0 22 -4
40 -9 40 -6 0 -12 19 -14 43 l-4 42 -1 -42 c-2 -36 -5 -43 -22 -43 -17 0 -20
7 -20 45 0 31 -5 47 -15 51 -10 4 -15 20 -15 53 0 25 -5 91 -12 147 -10 93
-13 101 -37 112 -17 8 -27 9 -29 2 -2 -5 -10 -10 -18 -10 -22 0 -19 77 4 83
13 4 11 5 -5 6 -13 0 -23 -4 -23 -9 0 -6 -3 -9 -7 -9 -21 3 -33 -2 -33 -16 0
-18 -12 -19 -28 -3 -18 18 -15 28 8 28 11 0 20 5 20 10 0 6 -17 10 -38 10 -21
0 -44 6 -50 12 -7 7 -34 13 -60 14 -95 3 -98 4 -82 14 11 7 11 10 2 10 -7 0
-11 3 -9 8 3 4 -26 6 -64 4 -58 -3 -69 -1 -69 12 0 9 -7 16 -15 16 -8 0 -15
-7 -15 -16 0 -10 -6 -14 -17 -10 -10 2 -54 14 -97 26 -90 25 -127 40 -121 49
2 4 -11 5 -29 3 -17 -2 -58 3 -91 11 -33 9 -129 23 -212 33 l-153 18 0 31 c0
20 -7 35 -21 44 -18 10 -19 15 -8 22 12 8 12 11 -1 19 -20 13 -26 13 -44 -5
-10 -11 -36 -15 -90 -15 -58 0 -76 -3 -76 -14 0 -24 -33 -29 -51 -8 -18 23
-71 52 -94 52 -8 0 -15 7 -15 15 0 25 -69 17 -134 -16z m1654 -444 c0 -8 -2
-15 -4 -15 -2 0 -6 7 -10 15 -3 8 -1 15 4 15 6 0 10 -7 10 -15z m1360 -1440
c0 -8 -4 -15 -9 -15 -5 0 -14 7 -21 15 -10 13 -9 15 9 15 12 0 21 -6 21 -15z
m870 -90 c0 -12 -14 -15 -70 -15 -74 0 -97 16 -32 23 85 9 102 7 102 -8z"/>
<path d="M4010 8290 c-13 -9 -13 -11 0 -20 19 -12 35 -8 35 10 0 18 -16 22
-35 10z"/>
<path d="M948 8070 c-9 -10 -14 -21 -10 -24 9 -10 286 -7 301 3 8 5 11 15 9
23 -5 11 -36 14 -144 16 -125 1 -141 -1 -156 -18z"/>
<path d="M1520 8070 c0 -5 7 -7 15 -4 8 4 15 8 15 10 0 2 -7 4 -15 4 -8 0 -15
-4 -15 -10z"/>
<path d="M4160 7940 l0 -40 48 0 c26 0 53 5 60 12 9 9 12 8 12 -6 0 -15 3 -16
15 -6 31 26 -38 80 -102 80 -32 0 -33 -1 -33 -40z"/>
<path d="M4320 7936 c0 -2 7 -6 15 -10 8 -3 15 -1 15 4 0 6 -7 10 -15 10 -8 0
-15 -2 -15 -4z"/>
<path d="M1340 7751 c0 -6 5 -13 10 -16 6 -3 10 1 10 9 0 9 -4 16 -10 16 -5 0
-10 -4 -10 -9z"/>
<path d="M3095 6940 c-4 -6 13 -10 44 -10 28 0 51 5 51 10 0 6 -20 10 -44 10
-25 0 -48 -4 -51 -10z"/>
<path d="M2817 6423 c-13 -12 -7 -23 13 -23 11 0 20 7 20 15 0 15 -21 21 -33
8z"/>
<path d="M3200 6275 c0 -19 9 -19 51 0 l34 14 -42 1 c-32 0 -43 -4 -43 -15z"/>
<path d="M9280 6266 c0 -32 -14 -40 -74 -41 -33 -1 -52 -7 -61 -18 -7 -9 -17
-17 -24 -17 -6 0 -16 -12 -22 -27 -6 -16 -18 -40 -25 -55 -11 -21 -11 -28 -2
-32 7 -4 3 -4 -9 -2 -13 2 -26 0 -29 -5 -3 -5 -21 -9 -40 -9 -27 0 -34 -4 -34
-20 0 -18 -7 -20 -80 -20 -47 0 -80 -4 -80 -10 0 -17 -18 -11 -46 16 -20 21
-28 24 -34 14 -7 -11 -12 -11 -23 -2 -12 11 -19 5 -41 -32 -23 -39 -56 -64
-78 -58 -10 2 -97 -25 -120 -38 -9 -5 -60 -7 -114 -5 -70 3 -102 1 -116 -9
-17 -12 -17 -14 -3 -20 9 -3 34 -6 56 -6 26 0 39 -4 39 -14 0 -7 7 -19 16 -27
14 -11 14 -14 1 -23 -7 -6 -14 -26 -15 -43 l-1 -33 69 0 c41 0 74 -5 82 -12
26 -24 53 -34 90 -34 20 1 35 -1 33 -4 -9 -14 51 -57 63 -46 3 3 0 6 -6 6 -7
0 -12 7 -12 16 0 11 5 14 18 9 9 -4 26 -10 37 -13 11 -3 31 -13 44 -24 23 -18
23 -18 2 -18 -11 0 -21 5 -21 10 0 6 -8 10 -17 10 -16 -1 -16 -2 2 -16 14 -10
32 -14 56 -10 27 4 40 1 50 -11 12 -15 12 -16 -4 -10 -10 4 -30 4 -44 1 -33
-9 -11 -24 35 -24 46 0 40 -17 -10 -28 l-43 -9 60 -7 c33 -4 76 -12 95 -17 58
-15 140 -12 140 6 0 8 7 15 15 15 8 0 15 -6 15 -14 0 -23 84 -66 127 -66 25 0
33 3 24 9 -10 7 -11 10 -1 16 8 5 18 2 24 -7 9 -12 30 -15 108 -11 73 3 107
-1 140 -13 23 -9 63 -18 88 -21 25 -2 62 -13 82 -24 20 -11 52 -19 70 -19 29
1 158 -37 133 -39 -5 -1 -3 -5 5 -11 9 -5 19 -5 26 1 7 5 16 9 20 8 30 -5 44
3 44 26 0 36 28 47 56 22 26 -22 23 -37 -6 -37 -22 0 -39 -22 -22 -28 23 -7
12 -30 -17 -37 -33 -7 -98 3 -107 16 -9 15 -61 10 -74 -6 -7 -9 -20 -13 -30
-10 -9 3 -29 -4 -44 -16 -21 -17 -44 -22 -122 -25 -53 -3 -112 -11 -131 -19
-43 -18 -80 -19 -86 -2 -5 17 -113 -40 -142 -77 -21 -27 -22 -27 -28 -7 -3 11
-2 19 2 18 9 -3 50 40 44 46 -3 3 4 3 15 1 15 -4 21 0 24 20 4 22 2 25 -12 21
-11 -3 -30 5 -49 21 -27 23 -31 24 -31 7 -1 -17 -1 -17 -14 0 -28 37 -65 6
-66 -55 0 -21 4 -38 9 -38 4 0 21 -10 36 -22 26 -20 26 -22 9 -29 -17 -7 -17
-8 -1 -8 23 -1 22 -13 -3 -29 -11 -7 -20 -19 -20 -27 0 -10 11 -3 30 17 16 18
30 27 30 20 0 -7 -7 -15 -15 -18 -8 -4 -15 -13 -15 -21 0 -18 -31 -73 -42 -73
-4 0 -5 14 -1 30 3 17 1 30 -4 30 -5 0 -9 -19 -9 -42 0 -34 -4 -44 -19 -47
-10 -1 -22 4 -27 13 -13 24 -33 20 -67 -14 -28 -28 -57 -97 -46 -109 3 -2 5 1
5 7 0 7 5 12 10 12 15 0 12 -15 -9 -39 l-19 -22 -7 30 c-3 17 -4 35 0 41 3 6
-3 10 -15 10 -14 0 -21 -6 -19 -17 3 -33 -1 -43 -16 -43 -11 0 -15 13 -15 53
l0 52 -20 -25 -20 -25 -18 23 c-17 22 -17 22 -32 2 -21 -30 -37 -24 -44 15 -5
24 -2 42 10 60 9 14 14 28 11 32 -9 9 -39 -18 -34 -31 6 -15 -40 -49 -48 -36
-10 16 -23 12 -30 -9 -8 -26 4 -52 24 -50 31 3 41 -1 41 -16 0 -12 -16 -15
-83 -15 -57 0 -89 -5 -104 -15 -25 -17 -27 -55 -3 -55 10 0 7 -6 -10 -20 -30
-24 -40 -25 -40 -5 0 11 -11 15 -40 15 -36 0 -40 -2 -40 -25 0 -22 -4 -25 -38
-25 -21 0 -43 -5 -49 -11 -6 -6 -39 -9 -82 -7 -73 3 -80 1 -59 -20 21 -21 -27
-14 -52 8 -13 11 -27 20 -32 20 -4 0 -8 4 -8 8 0 4 16 9 36 10 20 2 33 -1 30
-6 -5 -8 47 -9 152 -3 12 0 22 6 22 11 0 7 -68 10 -193 10 -180 -1 -237 5
-251 28 -3 5 -22 13 -41 16 -20 4 -33 11 -30 17 4 5 -14 19 -40 30 -25 11 -48
26 -51 32 -3 8 -29 11 -82 9 -97 -3 -112 -5 -139 -20 -12 -7 -46 -12 -76 -12
-45 0 -57 4 -69 22 -11 16 -20 20 -41 14 -15 -3 -27 -13 -27 -22 0 -28 -32
-64 -56 -64 -13 0 -24 5 -24 11 0 8 -21 10 -70 5 -64 -7 -70 -6 -70 11 0 11
-5 24 -11 30 -21 21 2 35 52 31 27 -3 49 -1 49 3 0 3 11 9 25 11 14 3 25 1 25
-3 0 -5 -5 -9 -12 -9 -6 0 -8 -3 -5 -6 3 -4 22 7 42 25 20 17 40 31 45 31 6 0
10 7 10 15 0 8 5 15 10 15 6 0 10 18 10 40 l0 40 -50 0 c-38 0 -50 -4 -50 -15
0 -19 -14 -19 -30 0 -10 13 -9 15 9 15 12 0 21 6 21 15 0 12 16 15 80 15 79 0
80 0 80 25 0 14 5 25 10 25 16 0 13 149 -4 166 -11 11 -49 14 -170 14 l-156 0
0 30 c0 17 -4 30 -10 30 -5 0 -20 11 -34 25 -25 25 -27 25 -199 25 -143 0
-177 3 -187 15 -11 13 -5 15 45 15 51 0 56 2 44 16 -20 25 -65 44 -104 44 -19
0 -35 5 -35 10 0 6 -73 10 -200 10 -171 0 -200 2 -200 15 0 13 -29 15 -200 15
-127 0 -200 -4 -200 -10 0 -11 -163 -14 -259 -4 -50 6 -61 10 -61 25 0 18 -11
19 -160 19 -100 0 -160 4 -160 10 0 6 60 10 160 10 100 0 160 4 160 10 0 6
-53 10 -139 10 -76 0 -166 3 -200 6 -56 6 -61 9 -61 30 0 21 5 24 40 24 30 0
40 4 40 16 0 8 -4 12 -10 9 -5 -3 -10 -1 -10 5 0 6 -12 10 -27 8 -16 -2 -27
-8 -26 -15 2 -7 -3 -10 -10 -8 -6 3 -32 1 -57 -4 -25 -5 -39 -9 -32 -10 6 -1
12 -12 12 -26 0 -22 -4 -25 -40 -25 -22 0 -40 5 -40 10 0 6 -34 10 -81 10 -60
0 -80 3 -76 13 2 6 14 11 26 11 21 -1 21 0 5 17 -9 10 -25 21 -35 24 -11 4
-17 10 -15 14 10 15 -38 9 -53 -7 -21 -22 -57 -42 -76 -42 -8 0 -15 -6 -15
-14 0 -12 -26 -13 -157 -9 -87 3 -162 9 -168 13 -5 4 -22 6 -37 5 -15 -1 -25
2 -23 6 3 4 28 6 56 5 l50 -2 -32 28 c-32 28 -47 31 -127 28 -24 -1 -42 3 -42
9 0 6 -7 11 -15 11 -18 0 -65 47 -65 65 0 9 -10 15 -24 15 -13 0 -31 3 -40 6
-12 5 -16 0 -16 -20 0 -24 -3 -26 -41 -26 -36 0 -41 -2 -36 -20 5 -19 0 -20
-159 -20 -103 0 -164 4 -164 10 0 6 -60 10 -160 10 -142 0 -160 2 -160 16 0
15 -19 16 -207 11 -229 -7 -264 -12 -256 -33 3 -8 0 -14 -6 -14 -6 0 -11 5
-11 10 0 6 -13 10 -30 10 -16 0 -30 -3 -30 -7 0 -5 -96 -9 -213 -9 -116 -1
-193 0 -169 3 28 3 42 9 42 19 0 8 -8 15 -17 15 -10 1 -103 4 -206 8 -176 6
-188 5 -183 -11 4 -17 -8 -18 -155 -18 -152 0 -159 1 -159 20 0 20 -7 20 -800
20 l-800 0 0 -2910 0 -2910 5400 0 5400 0 0 3040 0 3040 -25 0 c-14 0 -25 5
-25 10 0 7 -13 8 -34 4 -23 -4 -58 1 -103 15 -62 19 -148 35 -263 47 -25 3
-56 8 -70 11 -14 3 -47 7 -75 8 -27 1 -119 10 -204 20 -99 11 -155 14 -160 8
-9 -15 -227 -37 -314 -31 -73 5 -107 15 -80 25 17 6 -4 51 -28 58 -9 3 -20 12
-23 20 -4 11 -21 15 -61 15 -52 0 -55 -1 -55 -24z m-6240 -486 c0 -6 33 -10
80 -10 73 0 80 -2 80 -20 0 -19 -5 -20 -120 -13 -88 4 -120 3 -120 -5 0 -7 15
-12 34 -12 19 0 38 -4 41 -10 4 -6 -16 -10 -54 -10 -33 0 -63 5 -66 10 -3 6
-1 10 6 10 10 0 10 3 1 12 -19 19 -14 28 13 28 42 0 28 19 -17 23 -24 2 -6 4
40 5 49 1 82 -2 82 -8z m-1430 -35 c0 -8 -4 -15 -10 -15 -5 0 -10 7 -10 15 0
8 5 15 10 15 6 0 10 -7 10 -15z m307 -7 c-3 -8 -6 -5 -6 6 -1 11 2 17 5 13 3
-3 4 -12 1 -19z m2946 -135 c-13 -2 -33 -2 -45 0 -13 2 -3 4 22 4 25 0 35 -2
23 -4z m1205 -86 c35 -23 -3 -27 -228 -27 -153 0 -240 4 -240 10 0 6 31 10 73
10 39 0 77 4 84 8 16 10 295 9 311 -1z m2759 7 c-3 -3 -12 -4 -19 -1 -8 3 -5
6 6 6 11 1 17 -2 13 -5z m308 -34 c3 -5 1 -10 -4 -10 -6 0 -11 5 -11 10 0 6 2
10 4 10 3 0 8 -4 11 -10z m65 -30 c0 -5 -2 -10 -4 -10 -3 0 -8 5 -11 10 -3 6
-1 10 4 10 6 0 11 -4 11 -10z m921 -42 c6 -11 27 -27 47 -35 36 -16 36 -16 12
-23 l-25 -7 24 -4 c29 -5 41 -29 14 -29 -11 0 -23 4 -28 9 -6 5 -28 11 -50 13
-35 3 -40 6 -37 26 2 14 -2 22 -11 22 -14 0 -27 20 -27 40 0 11 30 17 53 12
10 -3 22 -13 28 -24z m-4046 -8 c-4 -6 -81 -9 -203 -8 -117 0 -179 4 -152 8
73 11 362 11 355 0z m725 -60 c0 -5 18 -10 40 -10 22 0 40 -4 40 -10 0 -14
-94 -12 -108 2 -18 18 -15 28 8 28 11 0 20 -4 20 -10z m3326 -50 c19 0 34 -5
34 -11 0 -16 -93 -7 -98 10 -3 10 0 12 12 8 10 -4 33 -7 52 -7z m97 -17 c-7
-2 -19 -2 -25 0 -7 3 -2 5 12 5 14 0 19 -2 13 -5z m-23 -28 c16 -8 33 -14 37
-14 13 3 43 -12 43 -22 0 -13 -54 -2 -99 20 -22 12 -41 24 -41 26 0 10 32 5
60 -10z m470 -5 c0 -5 -5 -10 -11 -10 -5 0 -7 5 -4 10 3 6 8 10 11 10 2 0 4
-4 4 -10z m-50 -40 c0 -5 -7 -10 -15 -10 -8 0 -15 5 -15 10 0 6 7 10 15 10 8
0 15 -4 15 -10z m-252 -48 c29 -3 53 -25 40 -37 -6 -6 -106 44 -114 57 -4 6
-1 14 7 18 8 6 16 1 24 -13 7 -15 22 -23 43 -25z m-1148 24 c0 -3 -4 -8 -10
-11 -5 -3 -10 -1 -10 4 0 6 5 11 10 11 6 0 10 -2 10 -4z m-2110 -106 c0 -33
-3 -40 -20 -40 -17 0 -20 7 -20 40 0 33 3 40 20 40 17 0 20 -7 20 -40z m3387
26 c3 -3 -10 -6 -30 -6 -20 0 -38 4 -41 8 -6 10 61 8 71 -2z m-1432 -156 c3
-6 -1 -7 -9 -4 -18 7 -21 14 -7 14 6 0 13 -4 16 -10z m-3735 -14 c0 -2 -11
-11 -25 -20 -21 -14 -25 -14 -25 -2 0 8 8 17 18 19 25 7 32 7 32 3z m3715 -21
c-11 -8 -28 -22 -37 -31 -13 -13 -18 -14 -18 -4 0 21 31 50 54 50 21 -1 21 -1
1 -15z m-1985 -199 c0 -3 -4 -8 -10 -11 -5 -3 -10 -1 -10 4 0 6 5 11 10 11 6
0 10 -2 10 -4z"/>
<path d="M10090 5370 c0 -5 12 -10 26 -10 14 0 23 4 19 10 -3 6 -15 10 -26 10
-10 0 -19 -4 -19 -10z"/>
<path d="M1943 6223 c21 -23 67 -24 110 -2 16 9 22 9 25 0 2 -6 24 -11 48 -11
57 0 49 19 -9 22 -23 1 -4 4 43 8 66 5 49 6 -76 6 l-160 0 19 -23z"/>
<path d="M3123 6153 c-13 -2 -23 -10 -23 -17 0 -10 12 -12 45 -8 28 3 50 0 60
-8 8 -7 23 -9 32 -6 14 6 15 9 4 16 -8 4 -20 6 -26 4 -7 -3 -15 2 -18 10 -6
15 -28 18 -74 9z"/>
<path d="M2909 6134 c-20 -24 1 -33 69 -27 69 6 85 23 21 23 -22 0 -49 4 -59
10 -13 7 -21 5 -31 -6z"/>
<path d="M6240 6000 c0 -5 4 -10 9 -10 6 0 13 5 16 10 3 6 -1 10 -9 10 -9 0
-16 -4 -16 -10z"/>
<path d="M8248 5923 c6 -2 18 -2 25 0 6 3 1 5 -13 5 -14 0 -19 -2 -12 -5z"/>
<path d="M7735 5850 c-3 -5 -17 -10 -31 -10 -23 0 -24 -3 -23 -57 1 -45 6 -61
21 -72 11 -7 17 -19 14 -27 -3 -7 3 -31 12 -53 17 -41 32 -53 32 -26 0 21 13
19 35 -5 14 -15 31 -20 72 -20 29 0 53 4 53 8 0 5 17 17 37 28 21 10 49 29 63
42 16 14 38 22 62 22 20 0 40 5 43 10 3 6 15 10 26 10 27 0 89 42 89 61 0 10
-15 20 -40 28 -22 6 -40 16 -40 22 0 5 -54 9 -137 8 -82 -1 -149 3 -166 10
-16 6 -44 11 -63 11 -19 0 -34 5 -34 10 0 6 -4 10 -9 10 -6 0 -13 -4 -16 -10z"/>
<path d="M4418 5763 c12 -2 30 -2 40 0 9 3 -1 5 -23 4 -22 0 -30 -2 -17 -4z"/>
<path d="M5520 5580 c0 -6 47 -10 120 -10 73 0 120 4 120 10 0 6 -47 10 -120
10 -73 0 -120 -4 -120 -10z"/>
<path d="M9280 5430 c0 -5 4 -10 9 -10 6 0 13 5 16 10 3 6 -1 10 -9 10 -9 0
-16 -4 -16 -10z"/>
<path d="M7360 5315 c0 -11 11 -15 40 -15 29 0 40 4 40 15 0 11 -11 15 -40 15
-29 0 -40 -4 -40 -15z"/>
<path d="M9900 5301 c0 -6 5 -13 10 -16 6 -3 10 1 10 9 0 9 -4 16 -10 16 -5 0
-10 -4 -10 -9z"/>
<path d="M9692 5288 c2 -6 10 -14 16 -16 7 -2 10 2 6 12 -7 18 -28 22 -22 4z"/>
<path d="M7600 5110 c0 -5 18 -10 40 -10 22 0 40 5 40 10 0 6 -18 10 -40 10
-22 0 -40 -4 -40 -10z"/>
<path d="M9120 5113 c0 -15 19 -37 26 -31 3 4 -1 14 -10 23 -9 9 -16 13 -16 8z"/>
<path d="M8900 5018 c0 -19 2 -20 10 -8 13 19 13 30 0 30 -5 0 -10 -10 -10
-22z"/>
<path d="M8980 5013 c0 -22 2 -25 10 -13 13 20 13 40 0 40 -5 0 -10 -12 -10
-27z"/>
<path d="M8971 4972 c-1 -7 -5 -10 -11 -7 -6 3 -10 -4 -10 -17 0 -20 1 -21 16
-6 9 9 14 22 11 30 -4 10 -6 10 -6 0z"/>
<path d="M8881 4944 c0 -11 3 -14 6 -6 3 7 2 16 -1 19 -3 4 -6 -2 -5 -13z"/>
<path d="M7360 4887 c0 -23 2 -24 25 -14 29 14 28 31 -3 35 -18 3 -22 -2 -22
-21z"/>
<path d="M7980 4770 c0 -5 5 -10 10 -10 6 0 10 5 10 10 0 6 -4 10 -10 10 -5 0
-10 -4 -10 -10z"/>
</g>
</svg>
